<?xml version="1.0" encoding="UTF-8"?>
<svg id="Layer_1" data-name="Layer 1" xmlns="http://www.w3.org/2000/svg" viewBox="0 0 612 792">
  <defs>
    <style>
      .cls-1 {
        fill: #a9a9a9;
      }

      .cls-1, .cls-2, .cls-3, .cls-4, .cls-5, .cls-6, .cls-7, .cls-8, .cls-9, .cls-10, .cls-11, .cls-12, .cls-13, .cls-14, .cls-15, .cls-16, .cls-17, .cls-18, .cls-19, .cls-20, .cls-21, .cls-22, .cls-23, .cls-24, .cls-25, .cls-26, .cls-27, .cls-28, .cls-29, .cls-30, .cls-31, .cls-32, .cls-33, .cls-34, .cls-35, .cls-36, .cls-37, .cls-38, .cls-39, .cls-40, .cls-41, .cls-42, .cls-43, .cls-44, .cls-45, .cls-46, .cls-47, .cls-48, .cls-49, .cls-50, .cls-51, .cls-52, .cls-53, .cls-54, .cls-55, .cls-56, .cls-57, .cls-58, .cls-59, .cls-60, .cls-61, .cls-62, .cls-63, .cls-64, .cls-65, .cls-66, .cls-67, .cls-68, .cls-69, .cls-70, .cls-71, .cls-72, .cls-73 {
        stroke: #dbb69d;
        stroke-miterlimit: 10;
      }

      .cls-1, .cls-2, .cls-3, .cls-4, .cls-5, .cls-6, .cls-7, .cls-8, .cls-9, .cls-10, .cls-11, .cls-12, .cls-13, .cls-14, .cls-15, .cls-16, .cls-17, .cls-18, .cls-19, .cls-20, .cls-21, .cls-22, .cls-23, .cls-24, .cls-25, .cls-26, .cls-27, .cls-28, .cls-29, .cls-30, .cls-31, .cls-32, .cls-33, .cls-34, .cls-35, .cls-36, .cls-37, .cls-38, .cls-39, .cls-40, .cls-41, .cls-42, .cls-43, .cls-44, .cls-45, .cls-46, .cls-47, .cls-48, .cls-49, .cls-50, .cls-51, .cls-52, .cls-53, .cls-54, .cls-56, .cls-57, .cls-58, .cls-59, .cls-60, .cls-61, .cls-62, .cls-63, .cls-64, .cls-65, .cls-66, .cls-67, .cls-68, .cls-69, .cls-70, .cls-71, .cls-72, .cls-73 {
        stroke-width: .25px;
      }

      .cls-74 {
        fill: #3f3f3f;
      }

      .cls-2 {
        fill: #9f9f9f;
      }

      .cls-3 {
        fill: #cecece;
      }

      .cls-4 {
        fill: #d9d9d9;
      }

      .cls-5 {
        fill: #292929;
      }

      .cls-6 {
        fill: #3b3b3b;
      }

      .cls-7 {
        fill: #dcdcdc;
      }

      .cls-8 {
        fill: #a1a0a0;
      }

      .cls-9 {
        fill: #242424;
      }

      .cls-10 {
        fill: #f4f4f4;
      }

      .cls-11 {
        fill: #fbfbfb;
      }

      .cls-12 {
        fill: #d7d7d7;
      }

      .cls-13 {
        fill: #4a4a4a;
      }

      .cls-14 {
        fill: #c8c8c8;
      }

      .cls-15 {
        fill: #e1e1e1;
      }

      .cls-16, .cls-75 {
        fill: #e5e5e5;
      }

      .cls-17 {
        fill: #7f7f7f;
      }

      .cls-18 {
        fill: #111;
      }

      .cls-19 {
        fill: #838383;
      }

      .cls-20 {
        fill: #c4c4c4;
      }

      .cls-21 {
        fill: #191919;
      }

      .cls-22 {
        fill: #040404;
      }

      .cls-23 {
        fill: #080808;
      }

      .cls-24 {
        fill: #838282;
      }

      .cls-25 {
        fill: #050505;
      }

      .cls-26 {
        fill: #fcfcfc;
      }

      .cls-27 {
        fill: #505050;
      }

      .cls-28 {
        fill: #fefefe;
      }

      .cls-76, .cls-41 {
        fill: #ccc;
      }

      .cls-77 {
        font-family: Apple-Chancery, 'Apple Chancery';
        font-size: 21px;
      }

      .cls-29 {
        fill: #f6f6f6;
      }

      .cls-30 {
        fill: #5d5d5d;
      }

      .cls-31, .cls-78 {
        fill: #dbb69d;
      }

      .cls-32 {
        fill: #363636;
      }

      .cls-33 {
        fill: #090909;
      }

      .cls-35 {
        fill: #efefef;
      }

      .cls-36 {
        fill: #cfcfcf;
      }

      .cls-37 {
        fill: #cacaca;
      }

      .cls-79 {
        fill: #141414;
      }

      .cls-38 {
        fill: #151515;
      }

      .cls-39 {
        fill: #fafafa;
      }

      .cls-80 {
        fill: #717171;
      }

      .cls-40 {
        fill: #c7c7c7;
      }

      .cls-42 {
        fill: #e6e6e6;
      }

      .cls-43 {
        fill: #8b8b8b;
      }

      .cls-44 {
        fill: #1a1a1a;
      }

      .cls-45 {
        fill: #bfbfbf;
      }

      .cls-46, .cls-81 {
        fill: #0e0e0e;
      }

      .cls-47 {
        fill: #5b5b5b;
      }

      .cls-48 {
        fill: #414141;
      }

      .cls-49 {
        fill: #e7e7e7;
      }

      .cls-50 {
        fill: #f7f7f7;
      }

      .cls-51 {
        fill: #595959;
      }

      .cls-52 {
        fill: #1f1f1f;
      }

      .cls-53 {
        fill: #9a9a9a;
      }

      .cls-82, .cls-72 {
        fill: #b8b8b8;
      }

      .cls-54 {
        fill: #eaeaea;
      }

      .cls-56 {
        fill: #070707;
      }

      .cls-57 {
        fill: #d5d5d5;
      }

      .cls-58 {
        fill: #d3d3d3;
      }

      .cls-59 {
        fill: #e9e9e9;
      }

      .cls-60 {
        fill: #181818;
      }

      .cls-61 {
        fill: #dbdbdb;
      }

      .cls-83 {
        fill: #585858;
      }

      .cls-62 {
        fill: #aaa;
      }

      .cls-63 {
        fill: #d1d1d1;
      }

      .cls-64 {
        fill: #5f5d5e;
      }

      .cls-65 {
        fill: #807f7f;
      }

      .cls-66 {
        fill: #1b1b1b;
      }

      .cls-67 {
        fill: #dfdfdf;
      }

      .cls-68 {
        fill: #010101;
      }

      .cls-69 {
        fill: #232323;
      }

      .cls-70 {
        fill: #f2f2f2;
      }

      .cls-84 {
        fill: #222;
      }

      .cls-71 {
        fill: #afafaf;
      }

      .cls-85 {
        fill: #ececec;
      }

      .cls-86 {
        fill: #fdfdfd;
      }

      .cls-73 {
        fill: #2b2b2b;
      }
    </style>
  </defs>
  <ellipse cx="306.35" cy="396" rx="237.9" ry="240.49" style="fill:#dbb69d !important;"/>
  <path d="M285.55,156.18c231.63-16.18,351.89,266.27,179.22,420.22-139.54,124.42-363.61,44.63-395.7-138.33-24.17-137.81,76.03-272.08,216.48-281.89ZM288.55,159.18c-156.41,9.73-259.87,171.82-205.54,318.95,65.45,177.26,304.35,210.41,415.14,56.64,118.3-164.19-9.04-388.08-209.6-375.6Z"/>
  <path d="M144.42,303.57c70.31-128.45,261.18-126.51,328.81,3.98,73.25,141.34-51.11,302.36-206.36,268.36-120.21-26.32-181.73-164.04-122.44-272.35ZM437.7,264.58c-96.94-97.36-265.59-55.12-304.91,75.89-47.57,158.46,121.55,294.4,265.94,212.94,104.73-59.09,123.97-203.46,38.98-288.82Z"/>
  <path class="cls-76" d="M381.6,352.44c-.25,2.03.33,5.36-1,6.99l-5.98-3.01,4.99-.99c.3-.18-1.05-1.81-1-1.99.04-.15,2.16-1.03,2.99-1Z"/>
  <path class="cls-81" d="M384.6,364.42c-1.04,2.4,2.11,3.7-4.99,2.98.22-1.57,2.15-2.12,2.99-2.98.93-1.13,1.58-1.51,2,0Z"/>
  <path class="cls-84" d="M387.59,362.43c-.79.8-2.6,1.08-2.99,2h-2c.41-.41.61-1.44,1-2,1.29.16,2.68-.11,3.99,0Z"/>
  <path class="cls-86" d="M388.57,434.29c2.36,5.95,22.28,26.17,18.82,31.78-.72,1.16-6.61,2.25-8.32,2.23-9.82-.14-8.14-6.78-11.3-13.73-1.02-2.24-5.88-9.97-5.97-10.95-.15-1.51,5.04-10.52,6.77-9.32Z"/>
  <path class="cls-85" d="M384.6,503.14c-.48-.56-3.27-2.67-3.99-2.99-1.81-.64-1.48-1.3,1-2,.86-.16,2.24-1.98,2.49-1.98,2.41.08.69,5.27.5,6.97Z"/>
  <path class="cls-74" d="M375.62,498.15c.87.28.86.62,0,1-1.58-.14-4.13.68-4.99-1,4.02-1.11,3.48,0,4.99,0Z"/>
  <path class="cls-80" d="M381.6,498.15l-1,2c-2.1-.95-2.89-.81-4.99-1v-1c1.82,0,4.38.29,5.99,0Z"/>
  <g>
    <path class="cls-79" d="M388.59,386.38c-1.38,3.28-2.42,8.64-6.98,7.97-.37-1.52,1.4-.75,2-1.68,1.21-1.87,2.8-5.12,3.98-7.29,1.36-1.32,1.84-.76,1,1Z"/>
    <g>
      <path class="cls-31" d="M333.22,528.33l4.97,5.5-5.49,3.48c-2.71-.07,1.06-7.53.52-8.97Z"/>
      <path class="cls-34" d="M349.67,341.46q-1.13,3.23,0,0c1.31-1.32,16.5,6.4,18.09,8.45,1.38,1.77-1.01,5.94,5.86,5.52,1.77-.42,2.44,1.57,2,5.99,1.28,1.14.28,1.81-2.99,2-1.11-.02-4.24.07-4.99.44-.42.21-4.73,5.83-4.83,6.25-.13.59.73,5.97.9,6.24.16.25,4.28-1.33,3.91,3.04-1.22-.92-3.14-.21-4-.62-3.52-1.68-5.49-10.01-5.98-10.36-.21-.15-2.64,1.41-2.97,1.01-.23-1.55.3-3.57,0-4.99-1.88-.16-2.88,1.17-2.99,3.99.5,2.16,2.07,8.92,2.04,10.51-.07,3.47-3.32,7.67-.55,12.46.98,1.69,18.06,6.56,21.24,8.2.76,4.18,5.09,5.29,7.64,8.82,1.61,2.23,4.21,7.84,4.5,10.52.59,5.58-3.12,10.35-1.5,15.41,1.22,3.79,13.59,17.05,16.75,22.18,9.05,14.67-.19,18.34-14.19,15.7,4.4,12.32,2.68,20.69-4,31.48-.81,1.31-.87,2.91-2.99,2.45-1.46,1.18-1.99.64-1-1-.78-2.15-1.78-3.81-2.99-4.99-1.39,1.55-4.28.76-5.99,0-.94.79-3.47.31-4.99,0-.75,2.12-2.74,3.62-5.97,4.48-3.47,3.19-6.53,4.16-9.18,2.91-5.52-12.37-12.22-24.08-20.38-34.91l.6-2.42c-1.52-2.07-1.34-3.09,1.1-4.05,15.15,2.02,18.49-13.51,16.07-25.42l3.75-13.17c-3.07-1.94-5.24-4.87-6.5-8.8-6.5,3.51-14.83,3.61-21.3-.06-2.67-1.51-7.36-4.85-4.11-7.39l2.26-1.01c20.12,12.28,37.6-13,18.06-26.47l-.36-2.46c-.87-.28-.86-.62,0-1,1.86-2.38,3.59-2.04,3.99,1,1.16-.05,1.49-.39,1-1l-2.57-1.21c.94-7.59-1.1-12.93-6.11-16.03-1.05-4.49-4.14-7.87-9.28-10.16-18.92,6.55-38.64,11.01-58.78,10.72,1.45,2.42.69,4.76-2.17,4.22-1.64,3.37-3.91,5.36-6.8,5.96-3.85,4.14-7.31,11.47-1.17,14.7-.81,1.06.68,11.92,1.1,12.52.71,1.03,5.9-1.63,6.57-2.36l1.37.61c3.51-.88,3.51-1.22,0-1-7.59,4.18-2.76-8.74,2-7.98.55-.03,3.45,1.58,3.26,1.64-2.87.92-2.98-1.58-1.26-3.64-.23-2.5-5.98-3.38-9.37-2.98-6.27-1.73-4.78-5.88,1.1-6.64,1.72-5.66,12.57-11.33,14.25-4.35l1,2.99c2.71-3.82,10.41-2.86,10.98,2,1.85-.82,2.91-1.86,2.99-3.99-6.7-.7,0-10.39,4.36-2.55l1.59-.09c-.34-4.71.79-14.77,6.65-9.24,1.36,7.45,5.01,6.16,9.81,1.62,4.42-.57,9.5,7.39,11.31,11.26,3.48.51,3.53,3.46,1.66,6.12-6.59,5.05-8.4,8.87-10.58,16.28,2.53,3.35,3.43,10.83-1.85,7.54-1.74,5.53-11.18,3.62-15.91,2.18-1.65,1.56-3.25,2.2-5.18.95-3.13,3.42-6.43,2.79-8.96-1.05-2.01,6.07-12.34,5.85-17.27,3.43.11,1.79-.7,2.38-2.58,2.47-1.37,1.8-3.02,2.08-4.93.84l.93,2.16,1.76,1.45c-.31,10.11,3.19,20.53,9.64,28.22-.83,7.73,1.36,14.81,6.57,21.23.75.06,1.09-.26,1-1-6.46-2.89-10.78-17.7.89-11.28.59,5.49,2.45,8.64,7.78,11.18,2-2.7,5.1-2.34,9.3,1.1l3.99-1c-.87-.28-.86-.62,0-1-1.21-1.22-.63-1.61,1-1,.44-2.71,1.11-2.58,2,0,1.44-.24,3.08.66,3.99,2,.36.93.69,1.26,1,1,.28-.87.62-.86,1,0,1.22-1.81,2.04-.61,2.99,1-.44-2.76-.03-2.86,2.59-2.26,4.52,1.04,15.62,22.92,17.46,27.88l-1.09,2.32c1.03,2.26,1.03,4.25,0,5.99-1.83,2.78-2.89,6.53-5.49,8.98l-1.09-2.07c-7.19,1.04-14.63,2.55-21.86,3.06-3.54.25-8.85.87-12.03.88-2.03,0-4.44-2.51-7.42-.86.27,1.93,2.35.56,3.01,3.46,1.2,5.24-2.64,2.71-3.08,4.09-1.19,3.79.37,8.66,1.07,12.4,3-.6,6.42-5.01,7.04-.49.39,2.89-2.73,8.5-5.57,8.26-1.62-.13-5.39-8.91-5.96-10.76-1.85-5.97.68-9.84-6.47-12.97.16,2.36-2.76,2.75-3.36,4.22-.74,1.79-.22,4.42-.89,5.54-.58.97-3.39.41-2.78,3.72.07.37,3.62.54,1.95,2.44-1.11,1.26-3.32-1.03.08,5.03,1.59.08.35-1.38,2.38-2.17,2.75-1.07,3.38-.48,5.57,1.16-.15-1.95-.04-2.29,2-1.97,2.35,6.2,7.19,7.11.04,12.48-8.5,6.39-8.7-.94-11.63-1.45-2.61-.46-3.66,7.28-12.28,1.36-1.7-1.17-3.87-4.45-5.08-4.95-1.66-.69-5.32,1.21-5.96.54-.18-.19.21-3.02-.21-4.28-.67-2.01-3.48-3.18-4.57-5.43-1.37-2.83-1.07-6.49-2.22-9.26-.81-1.63-1.01-2.58,1-2,.14.02.79-1.55,2.51-.12,2.56,2.13,1.95,6.82,5.47,8.11,3.15-5.15-.87-8.93-1.08-12.46-.13-2.18,1.09-4.55,1.14-6.95.11-5.85-2.05-9.97,2.95-14.51-4.04-.75-9.38,1.41-11.99,4.46-2,2.34-3.07,8.39-7.96,7.01,3.24-2.63,1.49-6.65,2.46-10.52.76-3.05,4.17-7.34,5.73-10.24.77-1.43.54-3.67,1.28-4.73.99-1.42,2.65-.65,3.5-.96,1.6-.54,8.21-1.43,8.87-.42.11.17-3.85-.1-2.88-1.57.33-.66.64-1.35,1-2,.03-1.35-.3-2.68-1-3.99.05-11.49-2.3-19.04,0-30.94l-.96-1.09c1.49-2.77,2.01-5.65,1.56-8.65-3.6-11.83-7.43-24.75-10.36-37.15.93-4.62-.48-6.87-4.23-6.74.67,3.89-.05,7.09-.93,10.77-1.07,4.5-4.05,13.57-9.02,13.92v2c1.42-1.87,2.5-1.53,3.91.02,2.51-3.61,6.39-2.01,5.33,2.24.55,2.31.75,2.61,3.38,1.79,1.98,1.17,5.72,12.97,4.35,15.91-4.96-1.69-9.85-6.5-13.97-9.98-3.47-2.93-9.31-7.63-11.98-10.98-5.53-6.94-8.51-23.82-6.94-32.39.86-4.68,6.61-6.43,7.92-11.03l10.99-11.46c-10.24-.52-24.83-8.28-10-16.49,11.08-6.13,26.27-3.08,37.94.52,1.51-.43,3.85.96,4.99,2,.97-.42,2.02-.1,2,1,1.8-.38,4.34.37,4.99,2,2.11-.32,4.37.61,5.99,2,1.73.53,1.73.2,0-1-1.55.12-4.32-.61-4.99-2-1.46.34-3.89-.48-3.99-2-1.52.34-3.01.38-3.99-1-1.69.2-3.79-.8-4.99-2-5.14-1.68-10.36-3.8-15.97-4-.29-.22.77-1.36,1-1.99.86-2.51,1.86-2.51,2.99,0l2.39-1.67c27.32,7.44,55.14-2.06,79.37-15.33l4.07.03c.27.58,2.95,3.71,3.48,3.76,4.61.44,25.52-17.51,34.49-8.29,8.63,8.88-11.34,23.03-18.01,26.49Z"/>
      <path class="cls-34" d="M323.72,295.55c1.68,7.37-11.34,13.1-17.1,15.29-19.66,7.47-40.5,7.55-61.14,5.02l-2.59-2.35c-.36.4-.7.07-1-1-.47-19.41-4.1-31.6-6.69-49.69-2.36-16.5,3.7-17.36,18.48-20.85,11.76-2.78,56.22-6.75,64.62.62,2.73,2.39,1.12,19.54,1.44,24.51.55,8.47,2.03,20.23,3.98,28.45Z"/>
      <path class="cls-28" d="M329.71,319.5c-20.16,11.32-42.71,20.55-66.41,20-6.31-.15-13.3-2.26-19.41-3.03-2.67-.46-1.72-4.72-1-6.99-.76-1.86-.79-4.13,0-5.99-.76-1.56-.76-3.43,0-4.99-.79-1.28-.71-3.67,0-4.99,22.91,3.12,51.89,3.48,72.16-9.18,3.26-2.03,7.73-4.8,8.68-8.78.9,3.8,3.42,9,4.51,12.94.63,2.26,1.09,10.16,1.48,11.01Z"/>
      <path class="cls-55" d="M320.73,463.22c1.21-3.07,8.34,1.05,6.99,3.99,2.94-1.39,3.9.08,2.99,2.99,3.89,4.54,11.93,17.47,14.97,22.66,1.15,1.96,5.96,13.57,7.01,14.27,4.22-3.52,7.54-5.49,12.96-6.99,1.89.04,3.55.38,4.99,1,1.25-.77,4.66-.71,4.99,1,1.95-2.84,4.15.05,3.99,2.99.28.34.79.57,1,1,1.81,3.7,3.52,18.97,2.56,23.03-1.35,5.73-7.05,10.36-12.54,11.9-1.77,2.47-6.43,1.53-8.98,1-2.16,3.28-9.35,1.31-6.99-2.99-3.58-.24-6.46-3.19-4.99-6.99-1,.67-1.66,0-2-2-1.33,1.39-1.88.8-1-1-4.6-7.81-7.91-19.44-11.98-27.94-1.27-.51-1.93-1.84-2-3.99-3.4-6.95-8.9-18.46-12.92-24.51-1.11-1.68-3.88-1.85-4.2-4.28-.59-.3-1.57.9-1.84.85-2.08-.9-1.76-2.08-1-3.99-.89-.25-.87-.59,0-1,1.36-1.57,2.36-1.91,2.99-1,1.56-.7,3.22-.7,4.99,0Z"/>
      <path class="cls-28" d="M224.92,413.32c.49-1.58,1.97-3.14,2.01-4.98l1.97,1.98c-.21-2.81.06-5.33,1.99-7.5-.02-3.97-3.65,1.03-3.97.52-2.42-3.97,3.31-3.16,3.94-3.49,3.77-1.94,1.4-11.59,2.04-15.48,4.6-1.07,2.32,2.24,3.04,2.9s4.52-.3,4.94.1c.3.29-.1,6.27.25,8.23,1.95,10.84,11.09,33.3,9.5,42.97-.28,1.69-1.66,3.1-1.78,3.69-1.01-.64-1.97-1.37-2.99-2-1.02-1.19-.83-2.77.57-4.74-1,1.36-1.94,1.7-3.56.74-.17-.34-.83-.64-1-1-2.21-4.71-3.86-9.87-5-14.96l-2.97,3.98c.58-3.76-3.3-5.55-1.01-8.97-2.63-1.19-2.23,2.84-3.48,2.97-1.05.11-2.16-2.61-4.5-2.98-2.01.21-1.78-1.28,0-2Z"/>
      <path class="cls-68" d="M347.67,530.08c1.08,1.46,1.08,3.12,0,4.99,1.3,2.93,2.75,3.61,4.35,2.02l2.63,1.98c.73.78,1.09,1.97,2.25,2.32.23.07,4.49.66,4.74.67,2.21.5,4.62.65,7.22.44l-.23,1.56c-2.13,1.3-5.53,1.31-7.99,2.49-3.01,1.44-7.4,5.41-10.48,5.6-5.85.36-7.77-6.93-8.96-7.04-3.03-.28-2.34,6.84-9.82.77-3.83-3.11-4.67-4.77-3.45-10.09,1.75-7.67,13.16-4.56,13.25,2.28l5.49-8.98c.18.31.75.59,1,1Z"/>
      <path class="cls-56" d="M328.71,517.12c-1.82,1.98-1.47,3.59-1.99,5.97,10.43-5.08,8.33,3.04,3.06,7.56-2.3,1.97-7.28,4.16-8.04-.07-1.09-6-1.72-18,6.98-13.46Z"/>
      <path class="cls-46" d="M376.61,354.43c3.7.16,6.13,2.54,7.97,5.51l-2.98.49c.79,2.09,2.95,1.99,1,3.98-2.06,1.06-3.39,1.06-3.99,0-2.05-.26-3.57-.95-5.99-1,.79-.8,2.35-1.21,2.99-2-2.32-1.8-.52-5.57,1-6.99Z"/>
      <path class="cls-60" d="M245.88,440.26c-.45-.28-1.74.13-2.51-.98-.73-1.06-.24-2.52-.48-3.01l4.98-4.99c1.71,3.91.45,5.88-1.98,8.98Z"/>
      <path class="cls-44" d="M236.89,521.1c-.29.82-.62.81-1,0l-3.48-8.99c3.94,1.02,4.86,5.55,4.48,8.99Z"/>
      <path class="cls-54" d="M354.66,364.41l-2.99,3.99c-.24-1.03-2.75-5.2-1.99-5.98,1.81.43,4.51-.19,4.98,1.99Z"/>
      <path class="cls-29" d="M248.87,479.19c.28,0,2.55,1.71,3.99,1.01v.98s-9.98.01-9.98.01c1.41-.53,4.77-2,5.99-2Z"/>
      <path class="cls-8" d="M243.88,336.47c-.97-.12-2.01.08-2.99,0,1.09-3.01.82-4.06,1-6.99.28-.87.62-.86,1,0,.06,2.38-.4,4.82,1,6.99Z"/>
      <path class="cls-42" d="M260.85,344.45c.87.28.86.62,0,1-1.92-.63-3.99-1.69-4.99-2v-1c1.71.56,3.34,1.41,4.99,2Z"/>
      <path class="cls-5" d="M385.6,383.38c.48.25.44.59,0,1-.11,1.4-1.52,2.86-2,3.99l-1-1c1.07-1.97.28-4.7,2.99-3.99Z"/>
      <path class="cls-32" d="M293.78,529.08c-1.02,1.02-4-1.97-2.98-2.98s4,1.96,2.98,2.98Z"/>
      <path class="cls-27" d="M334.7,501.14c-.61.66-1.51,1.26-2,2v-5.99c.65,1.33,1.35,2.64,2,3.99Z"/>
      <path class="cls-17" d="M248.87,473.2c2.87,1.56,2.31,1.61,1,3.99v-1.34c-3.69-1.46-1-2.13-1-2.65Z"/>
      <path class="cls-65" d="M242.88,329.48h-1c.12-1.98-.05-4,0-5.99.28-.87.62-.86,1,0,.03,1.99-.05,4,0,5.99Z"/>
      <path class="cls-24" d="M242.88,313.52c.16,1.57-.02,3.36,0,4.99-.28.87-.62.86-1,0,0-1.99.05-4,0-5.99.47.1.95.54,1,1Z"/>
      <path class="cls-66" d="M238.89,522.1l-1,2c-.28-.69-1.91-1.75-2-2.99h1c.65.21,1.41.9,2,1Z"/>
      <path class="cls-64" d="M242.88,323.5h-1c.04-1.66,0-3.33,0-4.99h1c.02,1.66-.03,3.33,0,4.99Z"/>
      <path class="cls-28" d="M264.84,414.32c.95-2.67.51-2.89,0-5.98,2.16-.3,3.06,1.93,4.93,2.54,2.52.82,10.08.47,12.05-1.06,1.15-.9.64-3.94,3.49-4.47,4.34,8.29,5.64,2.63,8.1,2.21.94-.16,2.09.83,2.77.78s.52-1.97,1.16-2.02c1.44-.13,6.41,1.64,8.94,1.76,3.99.2,6.52-1.74,8.46-1.73,2.88-.96,6.47,1.99,4.99,4.99.37.42.28,1.79,2.04,3.43,6.45,6.02,18.11,6.26,24.9.56.65,2.6,1.58,6.19,3.14,8.35,1.01,1.41,3.4,2.07,3.77,3.28.49,1.58-1.29,4.23-1.64,6.1-.55,2.93-1.84,6.3-2.08,7.94-.43,3.03,1.39,7.78.57,12.52-.85,4.92-5.25,12.06-10,13.95-2.48.99-3.97.53-6.25.78-1.88.21-4.03-1.2-3.47,1.97-.51-.59-2.3-2.35-2.99-2.99l-.74-1.11c2.15-2,3.63-4.33,4.42-6.99,5.17-1.77,11.35-8.11,6.84-12.87l-8.8-7.71.29-2.27c-.5-1.52-1.19-1.43-2,0,.8.13,1.85.48,1.84,1.06-.09,7.08,1.17,10.04,5.81,15.81.52,8.28-18.07,8.15-11.05-2.17-2.74,1.71-5.93,1.8-9.58.29-12.19,2.4-16.74-1.61-21.38-11.67,1.62,4.08-.57,7.33-6.57,9.74l-1.02,1.43c3.68,3.07,3.18,5.28,1.11,9.13,5.51-1.72,7.82-1.27,6.91,1.32q-1.45,3.09,0,0c-.17-1.93.5-2.27,2-1,1.38-1.63,3.37,1.22,1,2,.81.69.81,2.02,0,3.99,1.58-.73,4.22-1.72,4.99,0v1c-1.04.35-2.37.69-3.99,1-1.24.65-2.02,2.07-3.48,2.01-1.18-7.21-4.65-1-5.07-.97-2.71.18-7.8-4.62-9.13-6.9-1.68-2.87,1.27-5.13-2.76-6.14-5.9-1.48,1.06,9.56,2.48,11,1.32,1.4.76,1.92-1,1-3.87-3.48-7.8-8.46-8.76-13.71-.48-2.65.62-6.25.23-7.3-.31-.84-3.24-3.21-4.34-5.54-2.87-6.11-6.66-17.78-5.1-24.34.85-2.16,1.92-2.74,3.99-2.99Z"/>
      <path class="cls-28" d="M266.83,399.34c-.73.32-1.99,2.58-2.8,2.9-1.06.42-6.88,1.42-7.17,1.1-.27-.3.29-3.1,0-4.34-.39-1.59-.54-1.53-1.12-4.91-.25-1.46-1.56-2.4-1.88-3.25-.23-.62,3.2.04,2-2.47h-3.99c2.06-4.37-.6-2.52-.99-3.01-.45-.57,1.7-1.58,1.7-2.48,0-.81-1.69-1.7-1.69-2,0-.69,2.26-1.08,2.7-1.76,2.08-3.22.92-7.43,8.24-7.77-1.98-2.57.61-1.77,1.39-2.92,1.17-1.74-1.33-3.78,4.63-2.03l-4.98-4.97c22.15,1.21,43.67-3.09,64.22-11.03,2.3,3.12,7.04,4.04,9.29,7.36.66.97.33,2.81,1.26,4.23s2.93,1.74,3.73,2.77c3.89,4.95.97,11.06,3.33,15.63,1.32,1.4.76,1.92-1,1-1.1-.47-2.74-.64-3.99-1-.62.24-.59.58,0,1,12.55,6.16,15.17,23.22,2.93,31.37-7.43,4.94-15.77,2.81-22.89-1.43-1.71-1.94-3.35-3.13-4.99-4.99,4.72.03-.24-7.18-1.99-9.97.54-.45,2.71,1.32,2.98.99s.67-5.77,2.15-8.34c2.47-4.27,7.99-5.35,8.83-10.62l-4.98-.02,1.96-2.43-8.02-9.5-8.91,6.95c.84-5.99-1.33-2.62-2.49-3.9-1.42-1.57-1.67-9.87-3.61-4.69-1.26,3.37-.87,7.07-.9,10.59l-2.98-.99.5,2.98c-1.4-.75-4.07-5.96-5-5.96-2.53,0-.47,3.75-.5,3.97,1.24,3.19.48,4.51-2.99,3.99-1.74-.54-4.69-2.37-5.95-2.54-1.61-.22-1.26,1.65-5.03.54-.68-.78-1.21-1.78-1-2.99-2.64-1.37-5.16-1.06-7.99-.99,2.04,3.14.02,1.3-1.87,2.6-3.9,2.68-1.97,4.09-2.14,4.33-.29.41-4.85,1.15-5.96,1.06,1.59,3.58,6.48,1.33,9.31,2,.76.18.65,1.96,1.27,2.05,2.33.33,5.42-3.02,8.38-2.05l-4.05,4.43c-.72.88-2.6.32-2.93.55-.46,2.42-1.12,3.08-2,2-2.9,3.02-.8,3.15-1.19,3.84-.2.36-3.32,1.28-3.78,2.65l2.97,1.5c.87.28.86.62,0,1Z"/>
      <path class="cls-26" d="M358.67,413.31c.08.08,2.1.37,1.96-.48-.9-1.19-2.19-6.16,0-6.5,3.07,8.5,15.16,17.65,18.47,24.99,1.54,3.42-2.15,7.06-3.98,9.92-1.15.02-8.35-18.09-9.53-18.91-.89-.62-3.51,1.13-3.84.89-.22-.15-.43-2.11-1.53-2.96-1.76-1.36-3.92-.95-5.45-3.56-2.64-4.52-.46-11.48-.1-16.36,4.1,1.54,2.32,11.41,4,12.97Z"/>
      <path class="cls-26" d="M370.64,406.33c1.73.45.45-2.01,1.5-2.04,7.52-.17,14.84,18.45,10.46,24.99-1.68.38-2.01-.55-2.97-1.52-4.01-4.07-15.93-20.15-18.72-25.19-.88-1.59-1.19-3.65-2.26-5.22,4.9.73,12.87,2.54,11.99,8.97Z"/>
      <path class="cls-39" d="M259.85,517.12c-.15,1.03-2.22,5.74-2,5.97,2.05,2.1,1.62-2.53,2.98-1.98-2.36,5.42,5.68,6.23,1,7.46l3.99,11.49c-.46.46-6.29-1.81-6.71-2.25-1.13-1.2-.12-5.47-3.92-5.58-3.16-.09-2.06,4.26-4.32,4.84,0-3.65,1.27-7.17,1.73-10.75.23-1.83-.92-3.36-.54-5.45.72-3.94,4.34-4.98,7.79-3.75Z"/>
      <path class="cls-50" d="M220.93,404.34c-.17-.03-.21-1.23-.98-1l-2,3.99c1.23-3.13-1.64-5.86-2.01-7.5-.14-.62,1.95.06,2.12-1.93.33-3.86-2.21-9.15-1.11-13.52,2.39,2.51,5.66-1.15,5.93-.97.07.05-.14,1.23.42,1.6.83.53,2.08.09,2.64,1.05,1.53,2.62-.93,4.39-1.07,6.75-.22,3.62.75,6.26.05,9.54-.28.87-.62.86-1,0-1.01-.23-1.68.44-2,2-.33.91-.66.91-1,0Z"/>
      <path class="cls-70" d="M349.67,341.46l2.99,6.98c-6.07-2.86-10.46,2.84-15.96-1.01-1.35-1.9,12.19-5.57,12.97-5.98Z"/>
      <path class="cls-69" d="M296.77,458.23c1.32.17,2.65.17,3.99,0,2.37-2.08,6.01,1.22,4.99,3.99,1.69,1.35,1.44,3.28-1,2.99-.07-.07-1.58-.08-2,0-1.37.87-1.89.42-1-1-3.12.04-4.78-.63-4.99-2,.06-2.1-.99-1.88-1-2-2.1-1.58-1.77-2.25,1-2Z"/>
      <path class="cls-52" d="M314.74,460.22c1.49,1.14.83,2.47-2,3.99-.06.3.01.67,0,1,.17,2.74-.49,3.74-2,2.99h-1c-.65.07-.98-.6-1-2-2.51.12-3.14-1.69-1-2.99-2.32-2.21-.86-4.23,2-2.99,1.39-1.06,3.66-1.41,4.99,0Z"/>
      <path class="cls-7" d="M260.85,417.31c-7.56-.62-.8-3.4.01-7.98,2.74,1.06-1.54,6.23,3.98,4.98-.77,2.15-1.02,3.24-3.99,2.99Z"/>
      <path class="cls-37" d="M296.77,392.36c3.9-1,9.57-1.56,11.98,1.99-3.59-.43-7.3-1.61-10.98-.99-1.68.63-1.92.62-1-1Z"/>
      <path class="cls-40" d="M291.78,375.39l2.99,4.98c-2.64.73-4.14-.42-5.99-.99.83-.92,2.85-2.94,2.99-3.99Z"/>
      <path class="cls-63" d="M315.73,346.46c-.41,1.68-8.59,4.29-8.97,3.98-2.48-2.06,8.17-4.69,8.97-3.98Z"/>
      <path class="cls-61" d="M356.65,323.5c1.39-.71,1.81-.44,1,1-2.57.39-5.28.39-7.98,1-1.88.42-2.55.08-2-1,3.88-1.33,5.59-.58,8.98-1Z"/>
      <path class="cls-19" d="M307.75,463.22c.1.12.59,2.01,1,2.99v1c-4.59,1.21-3.68-1.72-3.99-2l1-2.99c1.82-1.98,2.35-1.67,2,1Z"/>
      <path class="cls-58" d="M329.71,338.47c-.76.65-3.06,4.77-4.99,2.99-1.78-1.65,3.46-3.49,3.99-3.99,1.4-1.32,1.92-.76,1,1Z"/>
      <path class="cls-57" d="M337.69,331.48c-1.49,1.12-3.52,2.77-4.99,3.99-1.4,1.32-1.92.76-1-1,1.81-1.54,2.88-2.59,4.99-3.99,1.4-1.3,1.92-.75,1,1Z"/>
      <path class="cls-15" d="M336.69,330.48c1.18-.78,4.35-4.32,5.98-2.99,1.98,1.61-4.32,3.49-4.98,3.99l-1-1Z"/>
      <path class="cls-72" d="M297.77,351.44c2.54-.52,5.25-3.27,7.99-.5,0,.42-6.74,1.31-7.99,1.5-.87-.28-.86-.62,0-1Z"/>
      <path class="cls-16" d="M309.75,468.21c.38,2.6-.12,3.69-2.99,3.5l2-4.5v-1c.21.52.81.72,1,2Z"/>
      <path class="cls-49" d="M278.81,468.21l1-1c.91.92,5.69,1.79,3,3.5-2.03,1.71-2.87-1.49-4-2.5Z"/>
      <path class="cls-57" d="M317.74,346.45c-1.95-1.73,4.36-3.44,4.97-3.99.92,2.13-4.2,4.68-4.97,3.99Z"/>
      <path class="cls-36" d="M268.83,347.45c1.28.92.95,1.25-1,1-1.92-.67-3.72-1.56-4.99-2-.66-.83,0-1.16,2-1,1.5.59,2.76,1.48,3.99,2Z"/>
      <path class="cls-10" d="M270.83,388.37c-.96,3.66,1.6,2.66,1.99,3.01.81.74-5.46,4.54-3.98-1.01.63-.66,1.26-1.48,2-2Z"/>
      <path class="cls-3" d="M224.92,402.34c-.89,4.14-3.47,6.63-3.99,2,.26.05.74.06,1,0-.25-1.78.12-2.6,2-2h1Z"/>
      <path class="cls-15" d="M277.81,401.35c0,3.92-3.96,3.97-3.98,0h3.98Z"/>
      <path class="cls-67" d="M266.83,398.35l5.99-.51c-1.65,1.02-4.15.69-5.99,1.51v-1Z"/>
      <path class="cls-1" d="M296.77,392.36l1,1c-.64.11-4.09,2.87-4.98,1.99-1.92-1.9,2.76-2.68,3.99-2.99Z"/>
      <path class="cls-1" d="M364.63,317.51c.98,1.08-1.27,4.78-2.98,4.98.01-1.71,1.26-6.88,2.98-4.98Z"/>
      <path class="cls-35" d="M273.82,349.44c.87.28.86.62,0,1-2.04-.64-3.98-1.3-5.99-2l1-1c1.68.7,3.2,1.1,4.99,2Z"/>
      <path class="cls-21" d="M301.76,464.22c.35.31.64.7,1,1-.27.05-.7.96-1,1-.98.12-4.34.22-4.99,0-.66-3.27,2.44-3.11,4.99-2Z"/>
      <path class="cls-61" d="M332.7,335.47c-.77.64-1.79,1.95-2.99,2.99l-1-1c1.01-.95,1.64-1.85,2.99-2.99l1,1Z"/>
      <path class="cls-43" d="M339.69,380.38v1c-.74-.36-5.04-.32-5-1.5,1.5-1.8,3.88.18,5,.5Z"/>
      <path class="cls-14" d="M349.67,325.49c-1.64.37-3.84,2.41-5.99,1.99.45-1.57,2.59-2.5,3.99-2.98l2,1Z"/>
      <path class="cls-62" d="M345.67,349.45v2.98s-2.99,0-2.99,0c1.04-1.92.56-3.63,2.99-2.98Z"/>
      <path class="cls-43" d="M297.77,351.44v1c-2.16.32-5.71,2.7-4.98-1,1.65.62,3.31.34,4.98,0Z"/>
      <path class="cls-3" d="M277.81,377.39c-3.06-.9-4.27-1.28-1-2.99,1.83.95,2.45,1.23,1,2.99Z"/>
      <path class="cls-70" d="M313.74,469.21c-1.07-.19-2.08-.38-2.99-1l2-2.99c-.04,1.11.88,2.76,1,3.99Z"/>
      <path class="cls-2" d="M301.76,467.21l.99,2.99c-1.67-1.1-1.12-2.89-4.98-1.99,1.38-.72,2.07-1.52,3.99-1Z"/>
      <path class="cls-4" d="M264.84,345.45l-2,1c-.86-.3-1.56-.85-2-1v-1c1.27.45,2.75.51,3.99,1Z"/>
      <path class="cls-17" d="M224.92,413.32c-.16.51.11,1.37,0,2-.94-.15-2.02.11-2.99,0,.21-1.49,1.71-1.89,2.99-1.99Z"/>
      <path class="cls-45" d="M344.68,380.38c.32.62,2.78.91,1.99,2.99-.37.47-2.43-1.76-2.98-2l1-1Z"/>
      <path class="cls-57" d="M356.65,323.5c.28-.03,3.46-3.19,2.99.99-.64.08-1.36-.09-1.99,0l-1-1Z"/>
      <path class="cls-53" d="M273.82,349.44c.96.49,2.83.15,2.99,1.99-1.62.62-2.26-.76-2.99-.99v-1Z"/>
      <path class="cls-54" d="M286.79,473.19h-2.99s0-1.98,0-1.98c1.38-.31,2.65.54,2.99,1.98Z"/>
      <path class="cls-68" d="M329.71,436.27c1.07.61,9.69,8.07,10.39,9.07,3.75,5.41,1.31,5.02.11,7.95-.44,1.07.33,2.52-.01,2.99-.3.41-7.18,4.16-8.48,4.95l1.98,1.48-5.98,4.5c-.72-.68-5.74-3.59-6.99-3.99-1.18-.12-2.18-.45-2.99-1-1.6-.59-2.65-2.32-2.99-3.99-1.55,1.46-3.21,2.13-4.99,2-.78.95-1.71,1.69-2,2.99-.26-.33-1.49-.57-2-1-1.33-1.12-3.38-2.76-4.99-3.99l-1.07.86c-.98-.89-3.96-2.31-2.92-.86-.15.59-1.03,1.62-1,2-.22,1.1-1.05,1.08-2,1-.16-.01-.55-.89-1.29-.76-2.16.39-3.69,2.74-7.69.75-.77-2.21,2.17-4.8,1.86-6.33-.3-1.49-3.44-2.21-2.75-4.93.78-3.05,7.15-4.53,8.87-7.19-.76-1.01-2.64-.27-4.01-.98-2.66-1.36,1.76-2.43,2.63-2.94.39-.23.4-1.55.98-1.57,1.17-.03,2.9,1.33,4.4,1-2.34,3.79.42,2.57,1.01,3.67s.52,2.85,1,3.51c4.83,6.58,9.18,3.78,15.44,3.79,2.55,0,5.18,1.84,7.85.89,2.1-.75,1.24-4.31,3.62-4.88,1.79,4.27.63,7.42-1.98,10.96,2.96.45,5.45,1.5,8.28-.19,3.76-2.24.32-2.75-.61-4.79-1.2-2.62-3.34-6.02-4.03-8.21-1.02-3.24.4-4.97.35-6.76.39-2.65,1.16-2.52,2,0Z"/>
      <path class="cls-11" d="M376.33,505.4c.61.64.86,1.55,1.09,2.39-1.58,7.66-21.19,6.18-17.3-1.67,2.1-4.24,13.31-3.77,16.21-.73Z"/>
      <path class="cls-59" d="M354.66,539.07c-2.27-1.14-5.37,2.21-6.46,2-1.93-.36-.65-4.04-.52-6,.25-2.33.91-3.33,2-2.99,1.53,2.24,3.16,5.03,4.99,6.99Z"/>
      <path class="cls-49" d="M317.73,462.22c-.36.37-1.03.71-2,1-.76.1-1.95,1.07-2.99,1,.18-.86,1.7-1.99,2-3.99-2.63-.38-2.48-1.12,0-2,2.28.89,3.37.48,2.99,3.99Z"/>
      <path class="cls-48" d="M352.65,514.11c-.13.14-.65-.05-.98,0v-5.98c2.58.23,2,4.87.98,5.98Z"/>
      <path class="cls-51" d="M349.67,532.08l-2,2.99c.11-1.65-.07-3.33,0-4.99.16.25,1.31.99,2,2Z"/>
      <rect class="cls-47" x="361.65" y="515.12" width="4.98" height=".98"/>
      <path class="cls-17" d="M317.73,462.22c1.94-.02,2.06.7,2.99,1-1.63.14-3.38-.21-4.99,0,.27-.95,1.14-.99,2-1Z"/>
      <path class="cls-18" d="M244.87,425.3c-.97-.16-3.73.24-3.98,0-.54-.52.91-12.95,1-14.96l2.71,8.75.27,6.22Z"/>
      <path class="cls-6" d="M237.89,390.37v1.48c-3.99,5.48-6.33-2.05,0-1.48Z"/>
      <path class="cls-22" d="M278.8,423.29c2.66,1.9-1.67,6.72-1.53,8.04.3,2.83,3.98,1.69,4.48,3.55.31,1.18-.97,3.03-.75,4.66.24,1.73,1.7,3.39,1.7,5.23-.02,8.67-15.92,3.26-10.87-4.5-6.4.64-1.4-4.55.99-6.5-4.59-1.46-.75-4.66.01-7,.2-.62-2.87-.02-2-1.96,1.1-2.44,3.71-.87,5.52-.74.99.07,2.34-.85,2.45-.78Z"/>
      <path class="cls-23" d="M311.45,431.46c5.9-1.75,6.78,4.68,4.33,6.35-.67.46-5.94,1.56-6.56.51-1.33-2.27-.45-6.07,2.23-6.86Z"/>
      <path class="cls-9" d="M327.71,436.27c-.04-1.75-5.34-5.55.53-5.04,2.17.19,3.15.84,4.45,2.55l-2.99,2.49c-.34-.2-1.41.13-2,0Z"/>
      <path class="cls-41" d="M301.76,464.22c-1.88-.04-3.91.28-4.99,2-.33-.11-.81.16-1-.51-.39-1.46.98-2.84,1-3.48,2.27.61,3.02.26,4.99,2Z"/>
      <path class="cls-30" d="M290.79,425.28l-3.99-.48c1.54-2.18,3.08-1.94,3.99.48Z"/>
      <path class="cls-73" d="M293.78,461.22v2.99s-1.99,0-1.99,0c-.31-1.38.54-2.66,1.99-2.99Z"/>
      <path class="cls-25" d="M319.73,404.34c-3.06-6.59-1.72-14.78,4.64-18.82,2.57-1.63,10.35-5.04,12.32-1.15-3.32.25-4.85,2.21-6.98,4,.56,1.02-.85,2.21-2,2,.28,1.22-.64,3.8-2,3.99-1.98,3.2-3.37,2.31-4.99,8.98.86,1.7.64,2.13-1,1Z"/>
      <path class="cls-33" d="M330.71,389.36c.81.12,2.81-.2,2.99,0,.46.49-2.26,3.83.51,4.98,2.15.46,2.44-3.38,4.08-3.89,1.69-.53,3.77.75,3.38,2.37-.09.38-4.32,5.5-4.93,6.06-4.89,4.42-8.6,2.4-10.03-3.54-.2-1.42.41-3.9,2-3.99-.49-1.17.84-2.38,2-2Z"/>
      <path class="cls-38" d="M346.45,390.61c.98,1.23,1.78,10.06,1.22,10.72-6.71-.26-5.75-16.45-1.22-10.72Z"/>
      <path class="cls-60" d="M320.73,403.34l3.99,5.98c-3.23.09-3.98-2.82-4.98-4.99.42-.18.89-.56,1-1Z"/>
      <path class="cls-71" d="M328.71,391.36c-.71,1.21-.7,3.01-2,3.99-.11-.44-.57-.82-1-1,.63-1.02-.21-1.52,2-3.99,1.4-1.32,1.9-.76,1,1Z"/>
      <path class="cls-70" d="M330.71,389.36c-.54.68-1.59,1.31-2,2l-1-1c.75-.84,1.09-1.24,2-2,.11.48.53.93,1,1Z"/>
      <path class="cls-13" d="M221.92,404.34c-2.51-6.43-2.19-9.3,2-2-.44.85-.97,1.77-2,2Z"/>
      <path class="cls-12" d="M300.77,458.23c-.24,5.09-2.55.99-3.99,0-.28-.19-1.39.13-1.99-.01v-.98c3.03-.69,3.62-.82,5.98.99Z"/>
      <path class="cls-20" d="M314.74,458.23c-.06.65.1,1.36,0,2-1.39.95-4.13,1.81-4.99,0,2.4-2.93,1.61-3.31,4.99-2Z"/>
    </g>
    <path class="cls-75" d="M311.25,254.5c-7.52,5.02-9.46,4.47-17.96,5.99-.87-.28-.86-.62,0-1l17.96-5.99c.79.29.78.62,0,1Z"/>
    <path class="cls-83" d="M276.32,261.49v1c-1.58.14-5.01,2.33-6.99.49l6.99-1.49Z"/>
    <path class="cls-82" d="M293.29,259.49v1c-1.03.18-2.19.72-3.99,1-.85-1.62-3.39-.94-4.99-1,3.2-.46,6.05-.38,8.98-1Z"/>
  </g>
  <text class="cls-77" transform="translate(183.05 573.7) rotate(33.55)"><tspan x="0" y="0">O</tspan></text>
  <text class="cls-77" transform="translate(195.41 581.78) rotate(30.58)"><tspan x="0" y="0">s</tspan></text>
  <text class="cls-77" transform="translate(202.11 585.79) rotate(27.95)"><tspan x="0" y="0">n</tspan></text>
  <text class="cls-77" transform="translate(212.91 591.46) rotate(25.11)"><tspan x="0" y="0">o</tspan></text>
  <text class="cls-77" transform="translate(221.36 595.42) rotate(22.58)"><tspan x="0" y="0">v</tspan></text>
  <text class="cls-77" transform="translate(230.39 599.19) rotate(19.81)"><tspan x="0" y="0">a</tspan></text>
  <text class="cls-77" transform="translate(240.89 602.98) rotate(16.71)"><tspan x="0" y="0">n</tspan></text>
  <text class="cls-77" transform="translate(252.62 606.45) rotate(13.85)"><tspan x="0" y="0">o</tspan></text>
  <text class="cls-77" transform="translate(261.59 608.63) rotate(11.82)"><tspan x="0" y="0"> </tspan></text>
  <text class="cls-77" transform="translate(267.6 609.94) rotate(9.42)"><tspan x="0" y="0">2</tspan></text>
  <text class="cls-77" transform="translate(279.55 611.9) rotate(6.35)"><tspan x="0" y="0">0</tspan></text>
  <text class="cls-77" transform="translate(290.57 613.07) rotate(4.3)"><tspan x="0" y="0">.</tspan></text>
  <text class="cls-77" transform="translate(295.07 613.41) rotate(2.93)"><tspan x="0" y="0"> </tspan></text>
  <text class="cls-77" transform="translate(301.15 613.74) rotate(.93)"><tspan x="0" y="0">S</tspan></text>
  <text class="cls-77" transform="translate(312.51 613.85) rotate(-1.63)"><tspan x="0" y="0">i</tspan></text>
  <text class="cls-77" transform="translate(318.9 613.66) rotate(-3.21)"><tspan x="0" y="0">j</tspan></text>
  <text class="cls-77" transform="translate(324.7 613.35) rotate(-5.02)"><tspan x="0" y="0">e</tspan></text>
  <text class="cls-77" transform="translate(332.74 612.64) rotate(-7.17)"><tspan x="0" y="0">č</tspan></text>
  <text class="cls-77" transform="translate(341.06 611.63) rotate(-9.87)"><tspan x="0" y="0">n</tspan></text>
  <text class="cls-77" transform="translate(353.03 609.47) rotate(-12.26)"><tspan x="0" y="0">j</tspan></text>
  <text class="cls-77" transform="translate(358.75 608.28) rotate(-14.5)"><tspan x="0" y="0">a</tspan></text>
  <text class="cls-77" transform="translate(369.47 605.45) rotate(-16.78)"><tspan x="0" y="0"> </tspan></text>
  <text class="cls-77" transform="translate(375.35 603.73) rotate(-19.18)"><tspan x="0" y="0">2</tspan></text>
  <text class="cls-77" transform="translate(386.77 599.74) rotate(-22.27)"><tspan x="0" y="0">0</tspan></text>
  <text class="cls-77" transform="translate(397.17 595.48) rotate(-25.36)"><tspan x="0" y="0">2</tspan></text>
  <text class="cls-77" transform="translate(408.08 590.28) rotate(-28.34)"><tspan x="0" y="0">5</tspan></text>
  <text class="cls-77" transform="translate(417.2 585.3) rotate(-30.31)"><tspan x="0" y="0">.</tspan></text>
  <text class="cls-77" transform="translate(112.54 343.16) rotate(-73.43)"><tspan x="0" y="0">S</tspan></text>
  <text class="cls-77" transform="translate(115.56 332.95) rotate(-70.39)"><tspan x="0" y="0">h</tspan></text>
  <text class="cls-77" transform="translate(119.19 322.77) rotate(-67.39)"><tspan x="0" y="0">a</tspan></text>
  <text class="cls-77" transform="translate(123.21 313.14) rotate(-64.72)"><tspan x="0" y="0">r</tspan></text>
  <text class="cls-77" transform="translate(126.71 305.74) rotate(-62.54)"><tspan x="0" y="0">e</tspan></text>
  <text class="cls-77" transform="translate(130.12 299.08) rotate(-60.01)"><tspan x="0" y="0">d</tspan></text>
  <text class="cls-77" transform="translate(135.35 290.04) rotate(-57.32)"><tspan x="0" y="0">o</tspan></text>
  <text class="cls-77" transform="translate(140.04 282.71) rotate(-54.77)"><tspan x="0" y="0">g</tspan></text>
  <text class="cls-77" transform="translate(145.56 274.94) rotate(-52.65)"><tspan x="0" y="0"> </tspan></text>
  <text class="cls-77" transform="translate(148.72 270.51) rotate(-49.46)"><tspan x="0" y="0">H</tspan></text>
  <text class="cls-77" transform="translate(160.08 257.42) rotate(-45.84)"><tspan x="0" y="0">o</tspan></text>
  <text class="cls-77" transform="translate(165.96 251.18) rotate(-42.38)"><tspan x="0" y="0">m</tspan></text>
  <text class="cls-77" transform="translate(177.98 240.36) rotate(-39.09)"><tspan x="0" y="0">e</tspan></text>
  <text class="cls-77" transform="translate(183.88 235.6) rotate(-37.27)"><tspan x="0" y="0">l</tspan></text>
  <text class="cls-77" transform="translate(188.13 232.33) rotate(-35.46)"><tspan x="0" y="0">e</tspan></text>
  <text class="cls-77" transform="translate(194.29 227.94) rotate(-33.39)"><tspan x="0" y="0">s</tspan></text>
  <text class="cls-77" transform="translate(200.3 223.97) rotate(-31.36)"><tspan x="0" y="0">s</tspan></text>
  <text class="cls-77" transform="translate(206.48 220.22) rotate(-29.55)"><tspan x="0" y="0"> </tspan></text>
  <text class="cls-77" transform="translate(211.4 217.43) rotate(-27.96)"><tspan x="0" y="0"> </tspan></text>
  <text class="cls-77" transform="translate(216.34 214.79) rotate(-26.15)"><tspan x="0" y="0">t</tspan></text>
  <text class="cls-77" transform="translate(222.76 211.6) rotate(-23.84)"><tspan x="0" y="0">v</tspan></text>
  <text class="cls-77" transform="translate(231.13 207.9) rotate(-21.31)"><tspan x="0" y="0">o</tspan></text>
  <text class="cls-77" transform="translate(239.29 204.75) rotate(-19.32)"><tspan x="0" y="0">j</tspan></text>
  <text class="cls-77" transform="translate(244.38 202.96) rotate(-17.75)"><tspan x="0" y="0"> </tspan></text>
  <text class="cls-77" transform="translate(249.65 201.22) rotate(-15.52)"><tspan x="0" y="0">p</tspan></text>
  <text class="cls-77" transform="translate(259.43 198.52) rotate(-12.89)"><tspan x="0" y="0">r</tspan></text>
  <text class="cls-77" transform="translate(267.69 196.65) rotate(-10.85)"><tspan x="0" y="0">i</tspan></text>
  <text class="cls-77" transform="translate(273.54 195.49) rotate(-8.7)"><tspan x="0" y="0">v</tspan></text>
  <text class="cls-77" transform="translate(282.55 194.09) rotate(-5.96)"><tspan x="0" y="0">a</tspan></text>
  <text class="cls-77" transform="translate(292.97 193.03) rotate(-3.5)"><tspan x="0" y="0">t</tspan></text>
  <text class="cls-77" transform="translate(300.08 192.54) rotate(-.93)"><tspan x="0" y="0">n</tspan></text>
  <text class="cls-77" transform="translate(311.63 192.41) rotate(1.5)"><tspan x="0" y="0">i</tspan></text>
  <text class="cls-77" transform="translate(317.64 192.56) rotate(3.12)"><tspan x="0" y="0"> </tspan></text>
  <text class="cls-77" transform="translate(323.19 192.82) rotate(5.31)"><tspan x="0" y="0">p</tspan></text>
  <text class="cls-77" transform="translate(333.29 193.77) rotate(7.92)"><tspan x="0" y="0">r</tspan></text>
  <text class="cls-77" transform="translate(341.34 194.87) rotate(10.25)"><tspan x="0" y="0">o</tspan></text>
  <text class="cls-77" transform="translate(349.87 196.37) rotate(13.1)"><tspan x="0" y="0">n</tspan></text>
  <text class="cls-77" transform="translate(361.05 198.98) rotate(16.21)"><tspan x="0" y="0">a</tspan></text>
  <text class="cls-77" transform="translate(371.13 201.95) rotate(18.45)"><tspan x="0" y="0">l</tspan></text>
  <text class="cls-77" transform="translate(376.19 203.58) rotate(20.69)"><tspan x="0" y="0">a</tspan></text>
  <text class="cls-77" transform="translate(385.95 207.29) rotate(23.35)"><tspan x="0" y="0">z</tspan></text>
  <text class="cls-77" transform="translate(393.59 210.55) rotate(26)"><tspan x="0" y="0">a</tspan></text>
  <text class="cls-77" transform="translate(402.98 215.16) rotate(28.57)"><tspan x="0" y="0">č</tspan></text>
  <text class="cls-77" transform="translate(409.85 218.91) rotate(30.46)"><tspan x="0" y="0"> </tspan></text>
  <text class="cls-77" transform="translate(414.67 221.72) rotate(32.43)"><tspan x="0" y="0">z</tspan></text>
  <text class="cls-77" transform="translate(421.71 226.15) rotate(35.06)"><tspan x="0" y="0">a</tspan></text>
  <text class="cls-77" transform="translate(430.24 232.11) rotate(38.12)"><tspan x="0" y="0">u</tspan></text>
  <text class="cls-77" transform="translate(439.19 239.16) rotate(40.99)"><tspan x="0" y="0">v</tspan></text>
  <text class="cls-77" transform="translate(446.14 245.23) rotate(43.11)"><tspan x="0" y="0">i</tspan></text>
  <text class="cls-77" transform="translate(450.52 249.33) rotate(44.7)"><tspan x="0" y="0">j</tspan></text>
  <text class="cls-77" transform="translate(454.36 253.11) rotate(46.52)"><tspan x="0" y="0">e</tspan></text>
  <text class="cls-77" transform="translate(459.55 258.53) rotate(48.88)"><tspan x="0" y="0">k</tspan></text>
  <text class="cls-77" transform="translate(465.73 265.67) rotate(50.98)"><tspan x="0" y="0"> </tspan></text>
  <text class="cls-77" transform="translate(469.28 269.96) rotate(53.19)"><tspan x="0" y="0">p</tspan></text>
  <text class="cls-77" transform="translate(475.33 278.07) rotate(55.79)"><tspan x="0" y="0">r</tspan></text>
  <text class="cls-77" transform="translate(480.1 285.12) rotate(57.82)"><tspan x="0" y="0">i</tspan></text>
  <text class="cls-77" transform="translate(483.3 290.2) rotate(59.42)"><tspan x="0" y="0">j</tspan></text>
  <text class="cls-77" transform="translate(486.05 294.74) rotate(61.65)"><tspan x="0" y="0">a</tspan></text>
  <text class="cls-77" transform="translate(490.99 303.98) rotate(64.14)"><tspan x="0" y="0">t</tspan></text>
  <text class="cls-77" transform="translate(494.07 310.29) rotate(66.17)"><tspan x="0" y="0">e</tspan></text>
  <text class="cls-77" transform="translate(497.11 317.22) rotate(68.01)"><tspan x="0" y="0">l</tspan></text>
  <text class="cls-77" transform="translate(499.15 322.25) rotate(69.54)"><tspan x="0" y="0">j</tspan></text>
  <text class="cls-77" transform="translate(501.05 327.19) rotate(71.78)"><tspan x="0" y="0">a</tspan></text>
</svg>